# xmcd
#
# Track frame offsets: 
#        150
#        22449
#        38018
#        58163
#        78185
#        94706
#        109126
#        131098
#        152654
#        178782
#        194298
#        207376
#        231889
#        246594
#        263182
#        283995
#        300439
#
# Disc length: 4341 seconds
#
# Revision: 0
# Processed by: cddbd v1.5.2PL0 Copyright (c) Steve Scherf et al.
# Submitted via: ExactAudioCopy v0.99pb5
#
DISCID=f910f311
DTITLE=Dennis Gruenling - I Just Keep Lovin' Him
DYEAR=2008
DGENRE=Blues
TTITLE0=Up The Line
TTITLE1=Lovin' Man
TTITLE2=I Got To Go
TTITLE3=Hot Shot
TTITLE4=To Young To Know
TTITLE5=Corbella
TTITLE6=If You Were Mine
TTITLE7=My Litle Machine
TTITLE8=Teenage Beat
TTITLE9=As Long As I Have You
TTITLE10=Temperature
TTITLE11=One Of These Mornings
TTITLE12=That's It
TTITLE13=You're Sweet
TTITLE14=Blues For Walter
TTITLE15=Back Track
TTITLE16=Sad Hours
EXTD=
EXTT0=
EXTT1=
EXTT2=
EXTT3=
EXTT4=
EXTT5=
EXTT6=
EXTT7=
EXTT8=
EXTT9=
EXTT10=
EXTT11=
EXTT12=
EXTT13=
EXTT14=
EXTT15=
EXTT16=
PLAYORDER=
